<?xml version="1.0" encoding="UTF-8"?>
<svg id="Layer_2" data-name="Layer 2" xmlns="http://www.w3.org/2000/svg" viewBox="0 0 134 134">
  <defs>
    <style>
      .cls-1 {
        fill: #fff;
      }
    </style>
  </defs>
  <g id="Icons">
    <g id="Mission">
      <rect width="134" height="134"/>
      <path class="cls-1" d="M91.56,43.94c3.75,10.78-13.7,34.13-23.64,33.88-2.12-.05-9.04-6.46-9.79-8.11-4.66-10.28,22.25-29.97,33.43-25.77ZM79.99,55.43c-1.54-2.62-12.38-.55-8.82,6.28s12.84.54,8.82-6.28Z"/>
      <path class="cls-1" d="M58.6,87.15c-.88.73-13.67,4.16-14.24,3.6l4.84-15.36c8.43-5.08,15.38,6.75,9.4,11.76Z"/>
      <path class="cls-1" d="M56.81,52.21c2.14-.18,2.52.87,3.79,2.23l-8.1,11.41c-2.6,1.62-6.29-1.43-8.11-3.34,2.97-2.52,8.61-9.97,12.42-10.3Z"/>
      <path class="cls-1" d="M70.41,89.14l-1.55-7.94,12.91-6.58c3.16,4.36-9.03,16.24-11.36,14.52Z"/>
      <path d="M79.99,55.43c4.02,6.82-5.27,13.1-8.82,6.28s7.28-8.9,8.82-6.28Z"/>
    </g>
  </g>
</svg>