<?xml version="1.0" encoding="UTF-8"?>
<!DOCTYPE svg PUBLIC "-//W3C//DTD SVG 1.1//EN" "http://www.w3.org/Graphics/SVG/1.1/DTD/svg11.dtd">
<svg xmlns="http://www.w3.org/2000/svg" xmlns:xlink="http://www.w3.org/1999/xlink" version="1.1" width="465px" height="365px" viewBox="-0.5 -0.5 465 365"><defs/><g><g><path d="M 204 249 L 234 269 L 204 289 Z" fill="#647687" stroke="#314354" stroke-miterlimit="10" transform="rotate(90,219,269)" pointer-events="all"/></g><g><rect x="174" y="289" width="90" height="60" rx="9" ry="9" fill="#647687" stroke="#314354" transform="rotate(-90,219,319)" pointer-events="all"/></g><g><path d="M 189 20 L 249 20 L 249 80 L 189 80 L 189 20 Z" fill="#eeeeee" stroke="none" transform="rotate(45,219,50)" pointer-events="all"/><path d="M 194 25 L 194 75 L 194 75 L 244 75 L 244 25 L 194 25" fill="none" stroke="none" transform="rotate(45,219,50)" pointer-events="all"/><path d="M 189 20 L 249 20 L 249 80 L 189 80 L 189 20 Z" fill="none" stroke="#36393d" stroke-miterlimit="10" transform="rotate(45,219,50)" pointer-events="all"/></g><g><path d="M 5.9 89.92 L 65.9 89.92 L 65.9 128.66 L 5.9 128.66 L 5.9 89.92 Z" fill="#eeeeee" stroke="none" transform="rotate(-35,35.9,109.29)" pointer-events="all"/><path d="M 5.9 89.92 L 5.9 128.66 L 5.9 128.66 L 65.9 128.66 L 65.9 89.92 L 5.9 89.92" fill="none" stroke="none" transform="rotate(-35,35.9,109.29)" pointer-events="all"/><path d="M 5.9 89.92 L 65.9 89.92 L 65.9 128.66 L 5.9 128.66 L 5.9 89.92 Z" fill="none" stroke="#36393d" stroke-miterlimit="10" transform="rotate(-35,35.9,109.29)" pointer-events="all"/></g><g><path d="M 371.91 53.05 L 438.67 53.05 L 438.67 93.32 L 371.91 93.32 L 371.91 53.05 Z" fill="#eeeeee" stroke="none" transform="rotate(30,405.29,73.18)" pointer-events="all"/><path d="M 372.04 53.18 L 372.04 93.18 L 372.04 93.18 L 438.53 93.18 L 438.53 53.18 L 372.04 53.18" fill="none" stroke="none" transform="rotate(30,405.29,73.18)" pointer-events="all"/><path d="M 371.91 53.05 L 438.67 53.05 L 438.67 93.32 L 371.91 93.32 L 371.91 53.05 Z" fill="none" stroke="#36393d" stroke-miterlimit="10" transform="rotate(30,405.29,73.18)" pointer-events="all"/></g><g><path d="M 33.5 110 L 62.51 87.8" fill="none" stroke="#66b2ff" stroke-width="4" stroke-miterlimit="10" pointer-events="stroke"/><path d="M 70.45 81.72 L 65.55 91.77 L 59.47 83.83 Z" fill="#66b2ff" stroke="#66b2ff" stroke-width="4" stroke-miterlimit="10" pointer-events="all"/></g><g><path d="M 218.5 50 L 195.08 69.69" fill="none" stroke="#66b2ff" stroke-width="4" stroke-miterlimit="10" pointer-events="stroke"/><path d="M 187.42 76.12 L 191.86 65.86 L 198.3 73.52 Z" fill="#66b2ff" stroke="#66b2ff" stroke-width="4" stroke-miterlimit="10" pointer-events="all"/></g><g><path d="M 405.56 71 L 428.22 32.47" fill="none" stroke="#66b2ff" stroke-width="4" stroke-miterlimit="10" pointer-events="stroke"/><path d="M 433.29 23.85 L 432.53 35.01 L 423.91 29.94 Z" fill="#66b2ff" stroke="#66b2ff" stroke-width="4" stroke-miterlimit="10" pointer-events="all"/></g><g><path d="M 34.93 110 L 20.58 81.89" fill="none" stroke="#66b2ff" stroke-width="4" stroke-miterlimit="10" pointer-events="stroke"/><path d="M 16.03 72.98 L 25.03 79.62 L 16.13 84.16 Z" fill="#66b2ff" stroke="#66b2ff" stroke-width="4" stroke-miterlimit="10" pointer-events="all"/></g><g><path d="M 404 70 L 441.48 91.74" fill="none" stroke="#66b2ff" stroke-width="4" stroke-miterlimit="10" pointer-events="stroke"/><path d="M 450.13 96.76 L 438.97 96.06 L 443.99 87.41 Z" fill="#66b2ff" stroke="#66b2ff" stroke-width="4" stroke-miterlimit="10" pointer-events="all"/></g><g><path d="M 219 50 L 193.4 20.01" fill="none" stroke="#66b2ff" stroke-width="4" stroke-miterlimit="10" pointer-events="stroke"/><path d="M 186.9 12.4 L 197.2 16.76 L 189.59 23.25 Z" fill="#66b2ff" stroke="#66b2ff" stroke-width="4" stroke-miterlimit="10" pointer-events="all"/></g></g></svg>